# xmcd
#
# Track frame offsets: 
#        187
#        11372
#        23737
#        33687
#        44667
#        58520
#        70090
#        81285
#        93990
#        107222
#        115437
#        129705
#        141232
#        153722
#        164082
#        179497
#        192212
#        203560
#        215892
#        228815
#
# Disc length: 3208 seconds
#
# Revision: 0
# Processed by: cddbd v1.5.2PL0 Copyright (c) Steve Scherf et al.
# Submitted via: ExactAudioCopy v0.99pb5
#
DISCID=270c8614
DTITLE=Bo Diddley - Best Hit 20 (JAPAN)
DYEAR=1988
DGENRE=Blues
TTITLE0=Bo Diddley
TTITLE1=I'm a Man
TTITLE2=Bring it to Jerome
TTITLE3=Diddley Daddy
TTITLE4=Before You Accuse Me
TTITLE5=Prtty Thing
TTITLE6=Who Do You Love
TTITLE7=Dearest Darling
TTITLE8=You Can't Judge a Book by it's Cover
TTITLE9=Hey Bo Diddley
TTITLE10=Say Man
TTITLE11=I'm Looking for a Woman
TTITLE12=Road Runner
TTITLE13=Mona
TTITLE14=Cops and Robbers
TTITLE15=Story of Bo Diddley
TTITLE16=Say, Bossman
TTITLE17=Hush Your Mouth
TTITLE18=Nursery Rhyme
TTITLE19=Live My Life
EXTD=
EXTT0=
EXTT1=
EXTT2=
EXTT3=
EXTT4=
EXTT5=
EXTT6=
EXTT7=
EXTT8=
EXTT9=
EXTT10=
EXTT11=
EXTT12=
EXTT13=
EXTT14=
EXTT15=
EXTT16=
EXTT17=
EXTT18=
EXTT19=
PLAYORDER=
